<?xml version="1.0" encoding="utf-8"?>
<!DOCTYPE svg PUBLIC "-//W3C//DTD SVG 1.0//EN" "http://www.w3.org/TR/2001/REC-SVG-20010904/DTD/svg10.dtd">
<svg version="1.0" xmlns="http://www.w3.org/2000/svg" width="128" height="128" viewBox="0 0 128 128" enable-background="new 0 0 128 128">
 <rect fill="#313639" width="128" height="128"/>
 <rect x="45.1" y="16.513" fill="#bfd730" width="37.68" height="12.465"/>
 <path fill="#ffffff" d="M75.988,69.828H52.949c0-15.94,3.482-18.351,12.19-18.351c7.501,0,10.983,2.143,10.983,14.198
	C76.122,67.015,76.122,68.623,75.988,69.828 M65.004,37.277C42.233,37.277,35,48.663,35,74.382c0,26.791,8.305,37.104,29.871,37.104
	c15.138,0,26.658-2.679,26.658-2.679l-0.268-14.066c0,0-10.448,1.475-23.309,1.475c-10.583,0-14.335-3.617-14.468-15.406h38.848
	c0,0,0.667-5.224,0.667-11.921C93,48.262,86.974,37.277,65.004,37.277"/>
</svg>
